<svg width="61" height="43" viewBox="0 0 61 43" fill="none" xmlns="http://www.w3.org/2000/svg">
<rect x="0.5" y="18.75" width="60" height="24" fill="#D9D9D9"/>
<path d="M31 0.25L60.5 18.75H0.5L31 0.25Z" fill="#D9D9D9"/>
<path fill-rule="evenodd" clip-rule="evenodd" d="M2.50052 12.3305C4.21866 12.3305 5.6115 10.9516 5.6115 9.25061V9.25H30.4993V34.4489H5.6115C5.61137 32.7481 4.21858 31.3693 2.50052 31.3693H2.50049L2.50049 12.3305H2.50052ZM58.4991 12.3305C56.781 12.3305 55.3882 10.9516 55.3882 9.25061V9.25L30.5008 9.25V34.4489H55.3886C55.3887 32.7481 56.7815 31.3693 58.4996 31.3693H58.4996V12.3305H58.4991Z" fill="#FF236C"/>
<path d="M20.5659 17.0303V23.5635H19.1597V17.0303H20.5659ZM20.7905 24.7158V25.8389H14.4917V22.9189H15.9175V24.7158H20.7905ZM16.5522 18.3779C16.5425 19.5107 17.0796 20.6436 18.603 21.1123L17.8901 22.2158C16.8892 21.8936 16.2202 21.2686 15.8296 20.4678C15.4243 21.332 14.731 22.0254 13.6909 22.3623L12.9585 21.2588C14.521 20.751 15.0874 19.5303 15.0874 18.3779V17.5186H16.5522V18.3779ZM26.5464 17.9092V19.0127H24.8081C24.8521 19.8525 25.438 20.7266 26.8784 21.083L26.2241 22.1572C25.2231 21.9131 24.5396 21.3857 24.1343 20.7021C23.7437 21.4883 23.0503 22.1084 21.9956 22.3916L21.3413 21.2979C22.7769 20.9023 23.3628 19.9404 23.4019 19.0127H21.6733V17.9092H23.4019V16.9912H24.8179V17.9092H26.5464ZM29.0171 17.0205V22.4404H27.6206V20.4971H26.2827V19.374H27.6206V17.0205H29.0171ZM25.9214 22.5576C27.855 22.5576 29.0366 23.1729 29.0464 24.2568C29.0366 25.3506 27.855 25.9951 25.9214 25.9854C24.0171 25.9951 22.8257 25.3506 22.8257 24.2568C22.8257 23.1729 24.0171 22.5576 25.9214 22.5576ZM25.9214 23.6318C24.7983 23.6221 24.2222 23.8271 24.2222 24.2568C24.2222 24.7061 24.7983 24.9209 25.9214 24.9307C27.0835 24.9209 27.6401 24.7061 27.6499 24.2568C27.6401 23.8271 27.0835 23.6221 25.9214 23.6318ZM36.9312 17.0205V20.4678H38.2007V21.6299H36.9312V25.9854H35.5444V17.0205H36.9312ZM35.0171 18.3291V19.4424H29.7729V18.3291H31.7163V17.167H33.1226V18.3291H35.0171ZM32.4194 19.8721C33.728 19.8721 34.7241 20.7705 34.7339 22.0303C34.7241 23.2998 33.728 24.1885 32.4194 24.1885C31.0718 24.1885 30.0854 23.2998 30.0952 22.0303C30.0854 20.7705 31.0718 19.8721 32.4194 19.8721ZM32.4194 21.0049C31.8433 21.0146 31.4331 21.3857 31.4429 22.0303C31.4331 22.6943 31.8433 23.0459 32.4194 23.0459C32.9761 23.0459 33.3765 22.6943 33.3862 22.0303C33.3765 21.3857 32.9761 21.0146 32.4194 21.0049ZM45.7827 17.0205V25.9854L44.3569 25.9854V17.0205H45.7827ZM43.0874 17.9482C43.0874 20.7119 42.2085 22.958 38.9468 24.4912L38.2144 23.3779C40.4946 22.2988 41.4517 20.9756 41.6519 19.042H38.7222V17.9482H43.0874Z" fill="white"/>
<path d="M0.5 18.75L30.5 33.75V42.75H0.5V18.75Z" fill="white" fill-opacity="0.8"/>
<path d="M30.5 33.75L60.5 18.75V42.75H30.5V33.75Z" fill="white" fill-opacity="0.8"/>
</svg>
