<svg width="88" height="88" viewBox="0 0 88 88" fill="none" xmlns="http://www.w3.org/2000/svg">
<path fill-rule="evenodd" clip-rule="evenodd" d="M44 88C68.3005 88 88 68.3005 88 44C88 19.6995 68.3005 0 44 0C19.6995 0 0 19.6995 0 44C0 68.3005 19.6995 88 44 88ZM45.1432 53.4459L45.2057 21.5084H43.0807L43.1432 53.4459H45.1432ZM42.1432 65.0709C42.1432 66.1334 43.0807 67.0084 44.1432 67.0084C45.2057 67.0084 46.0807 66.1334 46.0807 65.0709C46.0807 64.0084 45.2057 63.0709 44.1432 63.0709C43.0807 63.0709 42.1432 64.0084 42.1432 65.0709Z" fill="#D9D9D9"/>
</svg>
