<svg width="101" height="100" viewBox="0 0 101 100" fill="none" xmlns="http://www.w3.org/2000/svg">
<path fill-rule="evenodd" clip-rule="evenodd" d="M15.7324 7.72266H74.4636V59.5981C71.0022 59.3716 67.5028 60.0789 64.3755 61.7227H18.7324V62.7227H62.6933C61.6811 63.3985 60.7206 64.1827 59.8279 65.0754C58.9996 65.9037 58.2647 66.7904 57.6231 67.7227H18.7324V68.7227H56.9806C54.5696 72.752 53.7923 77.4996 54.6422 82.0211H15.7324V7.72266ZM18.7324 19.7227H70.7324V20.7227H18.7324V19.7227ZM70.7324 25.7227H18.7324V26.7227H70.7324V25.7227ZM18.7324 31.7227H70.7324V32.7227H18.7324V31.7227ZM70.7324 37.7227H18.7324V38.7227H70.7324V37.7227ZM18.7324 43.7227H70.7324V44.7227H18.7324V43.7227ZM70.7324 49.7227H18.7324V50.7227H70.7324V49.7227ZM18.7324 55.7227H70.7324V56.7227H18.7324V55.7227Z" fill="black"/>
<path fill-rule="evenodd" clip-rule="evenodd" d="M71.09 81.1343L63.4834 88.7409L67.0189 92.2764L74.6255 84.6698L82.2321 92.2764L85.7676 88.7409L78.1611 81.1343L85.7676 73.5277L82.2321 69.9922L74.6255 77.5987L67.019 69.9922L63.4835 73.5277L71.09 81.1343Z" fill="#FF236C"/>
</svg>
