<svg width="15" height="16" viewBox="0 0 15 16" fill="none" xmlns="http://www.w3.org/2000/svg">
<path d="M7.5 1.90625C6.29477 1.90625 5.11661 2.26364 4.1145 2.93323C3.11238 3.60282 2.33133 4.55454 1.87011 5.66802C1.40889 6.78151 1.28821 8.00676 1.52334 9.18883C1.75847 10.3709 2.33884 11.4567 3.19107 12.3089C4.0433 13.1612 5.1291 13.7415 6.31117 13.9767C7.49324 14.2118 8.71849 14.0911 9.83198 13.6299C10.9455 13.1687 11.8972 12.3876 12.5668 11.3855C13.2364 10.3834 13.5938 9.20523 13.5938 8C13.592 6.38436 12.9495 4.83538 11.807 3.69295C10.6646 2.55052 9.11564 1.90796 7.5 1.90625ZM7.5 13.1562C6.48019 13.1562 5.48328 12.8538 4.63534 12.2873C3.7874 11.7207 3.12651 10.9154 2.73625 9.97321C2.34598 9.03103 2.24387 7.99428 2.44283 6.99407C2.64178 5.99385 3.13287 5.0751 3.85398 4.35398C4.5751 3.63287 5.49385 3.14178 6.49407 2.94283C7.49428 2.74387 8.53103 2.84598 9.47321 3.23625C10.4154 3.62651 11.2207 4.2874 11.7873 5.13534C12.3538 5.98328 12.6563 6.98019 12.6563 8C12.6547 9.36705 12.111 10.6777 11.1443 11.6443C10.1777 12.611 8.86705 13.1547 7.5 13.1562ZM11.25 8C11.25 8.12432 11.2006 8.24355 11.1127 8.33146C11.0248 8.41936 10.9056 8.46875 10.7813 8.46875H7.5C7.37568 8.46875 7.25645 8.41936 7.16855 8.33146C7.08064 8.24355 7.03125 8.12432 7.03125 8V4.71875C7.03125 4.59443 7.08064 4.4752 7.16855 4.38729C7.25645 4.29939 7.37568 4.25 7.5 4.25C7.62432 4.25 7.74355 4.29939 7.83146 4.38729C7.91937 4.4752 7.96875 4.59443 7.96875 4.71875V7.53125H10.7813C10.9056 7.53125 11.0248 7.58064 11.1127 7.66854C11.2006 7.75645 11.25 7.87568 11.25 8Z" fill="#4E4E4E"/>
</svg>
