<svg width="20" height="20" viewBox="0 0 20 20" fill="none" xmlns="http://www.w3.org/2000/svg">
<rect width="20" height="20" fill="black"/>
<path d="M14.8776 14.334C14.9154 14.3692 14.9457 14.4117 14.9667 14.4588C14.9877 14.506 14.999 14.557 14.9999 14.6086C15.0009 14.6602 14.9914 14.7115 14.972 14.7594C14.9527 14.8073 14.9239 14.8508 14.8873 14.8873C14.8508 14.9239 14.8073 14.9527 14.7594 14.972C14.7115 14.9914 14.6602 15.0009 14.6086 14.9999C14.557 14.999 14.506 14.9877 14.4588 14.9667C14.4117 14.9457 14.3692 14.9154 14.334 14.8776L9.99041 10.5346L5.64682 14.8776C5.57391 14.9455 5.47747 14.9825 5.37783 14.9808C5.27819 14.979 5.18312 14.9386 5.11265 14.8682C5.04218 14.7977 5.00182 14.7026 5.00006 14.603C4.9983 14.5033 5.03529 14.4069 5.10323 14.334L9.44618 9.99041L5.10323 5.64682C5.03529 5.57391 4.9983 5.47747 5.00006 5.37783C5.00182 5.27819 5.04218 5.18312 5.11265 5.11265C5.18312 5.04218 5.27819 5.00182 5.37783 5.00006C5.47747 4.9983 5.57391 5.03529 5.64682 5.10323L9.99041 9.44618L14.334 5.10323C14.4069 5.03529 14.5033 4.9983 14.603 5.00006C14.7026 5.00182 14.7977 5.04218 14.8682 5.11265C14.9386 5.18312 14.979 5.27819 14.9808 5.37783C14.9825 5.47747 14.9455 5.57391 14.8776 5.64682L10.5346 9.99041L14.8776 14.334Z" fill="white"/>
</svg>
