<svg width="88" height="88" viewBox="0 0 88 88" fill="none" xmlns="http://www.w3.org/2000/svg">
<path fill-rule="evenodd" clip-rule="evenodd" d="M44 88C68.3005 88 88 68.3005 88 44C88 19.6995 68.3005 0 44 0C19.6995 0 0 19.6995 0 44C0 68.3005 19.6995 88 44 88ZM47.9557 40.5084C43.4557 43.6334 41.8307 46.0084 41.7682 50.7584V53.4459H43.8307V50.7584C43.8307 46.8834 45.0807 44.9459 49.2057 42.0084C53.8932 38.6959 55.7057 36.0084 55.7057 32.0709C55.7057 25.5709 50.7057 20.8834 44.0182 20.8834C37.1432 20.8834 32.0182 25.8834 31.9557 32.8209H34.0182C34.0807 26.9459 38.3932 22.8209 44.0182 22.8209C49.4557 22.8209 53.6432 26.6334 53.6432 32.0084C53.6432 35.2584 52.1432 37.6334 47.9557 40.5084ZM40.8307 65.0709C40.8307 66.1334 41.7682 67.0084 42.8307 67.0084C43.8932 67.0084 44.7682 66.1334 44.7682 65.0709C44.7682 64.0084 43.8932 63.0709 42.8307 63.0709C41.7682 63.0709 40.8307 64.0084 40.8307 65.0709Z" fill="#D9D9D9"/>
</svg>
