<svg width="23" height="23" viewBox="0 0 23 23" fill="none" xmlns="http://www.w3.org/2000/svg">
<rect x="0.5" y="0.5" width="22" height="22" rx="11" fill="#FF236C"/>
<rect x="0.5" y="0.5" width="22" height="22" rx="11" stroke="white"/>
<path d="M18.1482 8.49986L9.86852 16.8048C9.82046 16.8531 9.76339 16.8913 9.70057 16.9175C9.63775 16.9436 9.57041 16.957 9.50241 16.957C9.4344 16.957 9.36707 16.9436 9.30424 16.9175C9.24142 16.8913 9.18435 16.8531 9.13629 16.8048L5.51395 13.1714C5.41685 13.074 5.3623 12.9419 5.3623 12.8042C5.3623 12.6664 5.41685 12.5343 5.51395 12.4369C5.61105 12.3395 5.74275 12.2848 5.88007 12.2848C6.01739 12.2848 6.14908 12.3395 6.24618 12.4369L9.50241 15.7037L13.4592 11.7346L17.4159 7.76539C17.513 7.668 17.6447 7.61328 17.782 7.61328C17.9194 7.61328 18.0511 7.668 18.1482 7.76539C18.2453 7.86279 18.2998 7.99489 18.2998 8.13263C18.2998 8.27037 18.2453 8.40247 18.1482 8.49986Z" fill="white"/>
</svg>
