<svg width="23" height="23" viewBox="0 0 23 23" fill="none" xmlns="http://www.w3.org/2000/svg">
<rect x="0.5" y="0.5" width="22" height="22" rx="11" fill="#FF4800"/>
<rect x="0.5" y="0.5" width="22" height="22" rx="11" stroke="black"/>
<path d="M17.7858 7.88658L9.50622 16.1915C9.45816 16.2398 9.40109 16.2781 9.33827 16.3042C9.27545 16.3303 9.20811 16.3438 9.1401 16.3438C9.0721 16.3438 9.00476 16.3303 8.94194 16.3042C8.87912 16.2781 8.82205 16.2398 8.77399 16.1915L5.15165 12.5581C5.05455 12.4607 5 12.3286 5 12.1909C5 12.0531 5.05455 11.921 5.15165 11.8236C5.24875 11.7262 5.38044 11.6715 5.51776 11.6715C5.65508 11.6715 5.78678 11.7262 5.88388 11.8236L9.1401 15.0905L13.0969 11.1213L17.0536 7.15211C17.1507 7.05472 17.2824 7 17.4197 7C17.5571 7 17.6887 7.05472 17.7858 7.15211C17.8829 7.24951 17.9375 7.38161 17.9375 7.51935C17.9375 7.65709 17.8829 7.78918 17.7858 7.88658Z" fill="black"/>
</svg>
