<svg width="32" height="32" viewBox="0 0 32 32" fill="none" xmlns="http://www.w3.org/2000/svg">
<path d="M21.7081 12.7081L14.7081 19.7081C14.6152 19.801 14.5049 19.8748 14.3835 19.9251C14.2621 19.9754 14.132 20.0013 14.0006 20.0013C13.8691 20.0013 13.739 19.9754 13.6176 19.9251C13.4962 19.8748 13.3859 19.801 13.2931 19.7081L10.2931 16.7081C10.1054 16.5204 10 16.2659 10 16.0006C10 15.7352 10.1054 15.4807 10.2931 15.2931C10.4807 15.1054 10.7352 15 11.0006 15C11.2659 15 11.5204 15.1054 11.7081 15.2931L14.0006 17.5868L20.2931 11.2931C20.386 11.2001 20.4963 11.1264 20.6177 11.0762C20.7391 11.0259 20.8692 11 21.0006 11C21.132 11 21.2621 11.0259 21.3835 11.0762C21.5048 11.1264 21.6151 11.2001 21.7081 11.2931C21.801 11.386 21.8747 11.4963 21.9249 11.6177C21.9752 11.7391 22.0011 11.8692 22.0011 12.0006C22.0011 12.132 21.9752 12.2621 21.9249 12.3835C21.8747 12.5048 21.801 12.6151 21.7081 12.7081Z" fill="black"/>
</svg>
