<svg width="32" height="32" viewBox="0 0 32 32" fill="none" xmlns="http://www.w3.org/2000/svg">
<mask id="path-1-outside-1_4212_33071" maskUnits="userSpaceOnUse" x="4" y="3.15234" width="24" height="26" fill="black">
<rect fill="white" x="4" y="3.15234" width="24" height="26"/>
<path fill-rule="evenodd" clip-rule="evenodd" d="M5.65817 13.5092L5 14.1047V14.9923V25.8495V27.8495H7H13V25.8495H9H7V23.8495V14.9923L16 6.84946L25 14.9923V23.8495V25.8495H23H19V27.8495H25H27V25.8495V14.9923V14.1047L26.3418 13.5092L17.3418 5.36639L16 4.15235L14.6582 5.36639L5.65817 13.5092Z"/>
</mask>
<path fill-rule="evenodd" clip-rule="evenodd" d="M5.65817 13.5092L5 14.1047V14.9923V25.8495V27.8495H7H13V25.8495H9H7V23.8495V14.9923L16 6.84946L25 14.9923V23.8495V25.8495H23H19V27.8495H25H27V25.8495V14.9923V14.1047L26.3418 13.5092L17.3418 5.36639L16 4.15235L14.6582 5.36639L5.65817 13.5092Z" fill="white"/>
<path d="M5 14.1047L4.66454 13.734L4.5 13.8828V14.1047H5ZM5.65817 13.5092L5.99363 13.88L5.99363 13.88L5.65817 13.5092ZM5 27.8495H4.5V28.3495H5V27.8495ZM13 27.8495V28.3495H13.5V27.8495H13ZM13 25.8495H13.5V25.3495H13V25.8495ZM7 25.8495H6.5V26.3495H7V25.8495ZM7 14.9923L6.66454 14.6215L6.5 14.7704V14.9923H7ZM16 6.84946L16.3355 6.47869L16 6.17518L15.6645 6.47869L16 6.84946ZM25 14.9923H25.5V14.7704L25.3355 14.6215L25 14.9923ZM25 25.8495V26.3495H25.5V25.8495H25ZM19 25.8495V25.3495H18.5V25.8495H19ZM19 27.8495H18.5V28.3495H19V27.8495ZM27 27.8495V28.3495H27.5V27.8495H27ZM27 14.1047H27.5V13.8828L27.3355 13.734L27 14.1047ZM26.3418 13.5092L26.0064 13.88L26.0064 13.88L26.3418 13.5092ZM17.3418 5.36639L17.6773 4.99562L17.6773 4.99562L17.3418 5.36639ZM16 4.15235L16.3355 3.78158L16 3.47808L15.6645 3.78158L16 4.15235ZM14.6582 5.36639L14.9936 5.73715L14.9936 5.73715L14.6582 5.36639ZM5.33546 14.4755L5.99363 13.88L5.32272 13.1385L4.66454 13.734L5.33546 14.4755ZM5.5 14.9923V14.1047H4.5V14.9923H5.5ZM5.5 25.8495V14.9923H4.5V25.8495H5.5ZM5.5 27.8495V25.8495H4.5V27.8495H5.5ZM7 27.3495H5V28.3495H7V27.3495ZM13 27.3495H7V28.3495H13V27.3495ZM13.5 27.8495V25.8495H12.5V27.8495H13.5ZM9 26.3495H13V25.3495H9V26.3495ZM7 26.3495H9V25.3495H7V26.3495ZM6.5 23.8495V25.8495H7.5V23.8495H6.5ZM6.5 14.9923V23.8495H7.5V14.9923H6.5ZM15.6645 6.47869L6.66454 14.6215L7.33546 15.3631L16.3355 7.22022L15.6645 6.47869ZM25.3355 14.6215L16.3355 6.47869L15.6645 7.22022L24.6645 15.3631L25.3355 14.6215ZM25.5 23.8495V14.9923H24.5V23.8495H25.5ZM25.5 25.8495V23.8495H24.5V25.8495H25.5ZM23 26.3495H25V25.3495H23V26.3495ZM19 26.3495H23V25.3495H19V26.3495ZM18.5 25.8495V27.8495H19.5V25.8495H18.5ZM25 27.3495H19V28.3495H25V27.3495ZM27 27.3495H25V28.3495H27V27.3495ZM26.5 25.8495V27.8495H27.5V25.8495H26.5ZM26.5 14.9923V25.8495H27.5V14.9923H26.5ZM26.5 14.1047V14.9923H27.5V14.1047H26.5ZM26.0064 13.88L26.6645 14.4755L27.3355 13.734L26.6773 13.1385L26.0064 13.88ZM17.0064 5.73715L26.0064 13.88L26.6773 13.1385L17.6773 4.99562L17.0064 5.73715ZM15.6645 4.52312L17.0064 5.73715L17.6773 4.99562L16.3355 3.78158L15.6645 4.52312ZM14.9936 5.73715L16.3355 4.52312L15.6645 3.78158L14.3227 4.99562L14.9936 5.73715ZM5.99363 13.88L14.9936 5.73715L14.3227 4.99562L5.32272 13.1385L5.99363 13.88Z" fill="#A9A9A9" mask="url(#path-1-outside-1_4212_33071)"/>
<mask id="path-3-outside-2_4212_33071" maskUnits="userSpaceOnUse" x="10" y="13.8496" width="12" height="15" fill="black">
<rect fill="white" x="10" y="13.8496" width="12" height="15"/>
<path fill-rule="evenodd" clip-rule="evenodd" d="M16 14.8496C13.2386 14.8496 11 17.0882 11 19.8496V27.8496H13V19.8496C13 18.1928 14.3431 16.8496 16 16.8496C17.6569 16.8496 19 18.1928 19 19.8496V27.8496H21V19.8496C21 17.0882 18.7614 14.8496 16 14.8496Z"/>
</mask>
<path fill-rule="evenodd" clip-rule="evenodd" d="M16 14.8496C13.2386 14.8496 11 17.0882 11 19.8496V27.8496H13V19.8496C13 18.1928 14.3431 16.8496 16 16.8496C17.6569 16.8496 19 18.1928 19 19.8496V27.8496H21V19.8496C21 17.0882 18.7614 14.8496 16 14.8496Z" fill="white"/>
<path d="M11 27.8496H10.5V28.3496H11V27.8496ZM13 27.8496V28.3496H13.5V27.8496H13ZM19 27.8496H18.5V28.3496H19V27.8496ZM21 27.8496V28.3496H21.5V27.8496H21ZM11.5 19.8496C11.5 17.3643 13.5147 15.3496 16 15.3496V14.3496C12.9624 14.3496 10.5 16.812 10.5 19.8496H11.5ZM11.5 27.8496V19.8496H10.5V27.8496H11.5ZM13 27.3496H11V28.3496H13V27.3496ZM13.5 27.8496V19.8496H12.5V27.8496H13.5ZM13.5 19.8496C13.5 18.4689 14.6193 17.3496 16 17.3496V16.3496C14.067 16.3496 12.5 17.9166 12.5 19.8496H13.5ZM16 17.3496C17.3807 17.3496 18.5 18.4689 18.5 19.8496H19.5C19.5 17.9166 17.933 16.3496 16 16.3496V17.3496ZM18.5 19.8496V27.8496H19.5V19.8496H18.5ZM21 27.3496H19V28.3496H21V27.3496ZM20.5 19.8496V27.8496H21.5V19.8496H20.5ZM16 15.3496C18.4853 15.3496 20.5 17.3643 20.5 19.8496H21.5C21.5 16.812 19.0376 14.3496 16 14.3496V15.3496Z" fill="#A9A9A9" mask="url(#path-3-outside-2_4212_33071)"/>
<rect x="21" y="25.8496" width="1" height="2" fill="white"/>
<rect x="10" y="25.8496" width="1" height="2" fill="white"/>
</svg>
