<svg width="101" height="100" viewBox="0 0 101 100" fill="none" xmlns="http://www.w3.org/2000/svg">
<path fill-rule="evenodd" clip-rule="evenodd" d="M75.8494 20.7988C75.8494 27.8674 69.9849 33.5976 62.7506 33.5976C55.5164 33.5976 49.6519 27.8674 49.6519 20.7988C49.6519 13.7302 55.5164 8 62.7506 8C69.9849 8 75.8494 13.7302 75.8494 20.7988ZM58.5943 22.0625C58.3286 22.0625 58.0943 21.8438 58.0943 21.5781C58.0943 21.3125 58.3286 21.0781 58.5943 21.0781C58.8599 21.0781 59.0786 21.3125 59.0786 21.5781C59.0786 21.8438 58.8599 22.0625 58.5943 22.0625ZM62.2505 22.0625C61.9849 22.0625 61.7505 21.8438 61.7505 21.5781C61.7505 21.3125 61.9849 21.0781 62.2505 21.0781C62.5161 21.0781 62.7349 21.3125 62.7349 21.5781C62.7349 21.8438 62.5161 22.0625 62.2505 22.0625ZM65.9068 22.0625C65.6411 22.0625 65.4068 21.8438 65.4068 21.5781C65.4068 21.3125 65.6411 21.0781 65.9068 21.0781C66.1724 21.0781 66.3911 21.3125 66.3911 21.5781C66.3911 21.8438 66.1724 22.0625 65.9068 22.0625ZM25.6509 22.2491L49.7587 16.0676C49.2044 17.5262 48.9016 19.1034 48.9016 20.7495C48.9016 25.3596 51.2767 29.4301 54.9012 31.8657V83.5H61.4015V34.1841C61.7316 34.2157 62.0651 34.2361 62.4015 34.2448V83.5V84.5H61.4015H54.9012V91.9999L25.6516 84.5H25.6511V84.4998L25.6509 84.4998V22.2491ZM51.9011 53.7495C51.9011 55.4063 51.2296 56.7495 50.4011 56.7495C49.5727 56.7495 48.9011 55.4063 48.9011 53.7495C48.9011 52.0926 49.5727 50.7494 50.4011 50.7494C51.2296 50.7494 51.9011 52.0926 51.9011 53.7495Z" fill="black"/>
</svg>
