<svg width="61" height="43" viewBox="0 0 61 43" fill="none" xmlns="http://www.w3.org/2000/svg">
<rect x="0.5" y="18.75" width="60" height="24" fill="#D9D9D9"/>
<path d="M31 0.25L60.5 18.75H0.5L31 0.25Z" fill="#D9D9D9"/>
<path fill-rule="evenodd" clip-rule="evenodd" d="M2.50052 12.3305C4.21866 12.3305 5.6115 10.9516 5.6115 9.25061V9.25H30.4993V34.4489H5.6115C5.61137 32.7481 4.21858 31.3693 2.50052 31.3693H2.50049L2.50049 12.3305H2.50052ZM58.4991 12.3305C56.781 12.3305 55.3882 10.9516 55.3882 9.25061V9.25L30.5008 9.25V34.4489H55.3886C55.3887 32.7481 56.7815 31.3693 58.4996 31.3693H58.4996V12.3305H58.4991Z" fill="#FF4800"/>
<path d="M29.6128 21.9717V23.0947H26.1851V25.9658H24.7886V23.0947H21.4194V21.9717H29.6128ZM28.6655 17.4404V21.0928H22.3569V17.4404H28.6655ZM23.7339 18.5537V19.9893H27.2593V18.5537H23.7339ZM38.0151 23.876V25.0186H29.8218V23.876H31.853V22.6064H30.7397V19.5205H35.7104V18.7002H30.73V17.5771H37.0972V20.6338H32.146V21.4736H37.3022V22.6064H36.0913V23.876H38.0151ZM33.2202 23.876H34.7046V22.6064H33.2202V23.876Z" fill="white"/>
<path d="M0.5 18.75L30.5 33.75V42.75H0.5V18.75Z" fill="white" fill-opacity="0.8"/>
<path d="M30.5 33.75L60.5 18.75V42.75H30.5V33.75Z" fill="white" fill-opacity="0.8"/>
</svg>
