<svg width="61" height="43" viewBox="0 0 61 43" fill="none" xmlns="http://www.w3.org/2000/svg">
<rect x="0.5" y="18.75" width="60" height="24" fill="#D9D9D9"/>
<path d="M31 0.25L60.5 18.75H0.5L31 0.25Z" fill="#D9D9D9"/>
<path fill-rule="evenodd" clip-rule="evenodd" d="M2.50052 12.3305C4.21866 12.3305 5.6115 10.9516 5.6115 9.25061V9.25H30.4993V34.4489H5.6115C5.61137 32.7481 4.21858 31.3693 2.50052 31.3693H2.50049L2.50049 12.3305H2.50052ZM58.4991 12.3305C56.781 12.3305 55.3882 10.9516 55.3882 9.25061V9.25L30.5008 9.25V34.4489H55.3886C55.3887 32.7481 56.7815 31.3693 58.4996 31.3693H58.4996V12.3305H58.4991Z" fill="#FF4800"/>
<path d="M20.5659 17.0293V23.5625H19.1597V17.0293H20.5659ZM20.7905 24.7148V25.8379H14.4917V22.918H15.9175V24.7148H20.7905ZM16.5522 18.377C16.5425 19.5098 17.0796 20.6426 18.603 21.1113L17.8901 22.2148C16.8892 21.8926 16.2202 21.2676 15.8296 20.4668C15.4243 21.3311 14.731 22.0244 13.6909 22.3613L12.9585 21.2578C14.521 20.75 15.0874 19.5293 15.0874 18.377V17.5176H16.5522V18.377ZM26.5464 17.9082V19.0117H24.8081C24.8521 19.8516 25.438 20.7256 26.8784 21.082L26.2241 22.1562C25.2231 21.9121 24.5396 21.3848 24.1343 20.7012C23.7437 21.4873 23.0503 22.1074 21.9956 22.3906L21.3413 21.2969C22.7769 20.9014 23.3628 19.9395 23.4019 19.0117H21.6733V17.9082H23.4019V16.9902H24.8179V17.9082H26.5464ZM29.0171 17.0195V22.4395H27.6206V20.4961H26.2827V19.373H27.6206V17.0195H29.0171ZM25.9214 22.5566C27.855 22.5566 29.0366 23.1719 29.0464 24.2559C29.0366 25.3496 27.855 25.9941 25.9214 25.9844C24.0171 25.9941 22.8257 25.3496 22.8257 24.2559C22.8257 23.1719 24.0171 22.5566 25.9214 22.5566ZM25.9214 23.6309C24.7983 23.6211 24.2222 23.8262 24.2222 24.2559C24.2222 24.7051 24.7983 24.9199 25.9214 24.9297C27.0835 24.9199 27.6401 24.7051 27.6499 24.2559C27.6401 23.8262 27.0835 23.6211 25.9214 23.6309ZM36.9312 17.0195V20.4668H38.2007V21.6289H36.9312V25.9844H35.5444V17.0195H36.9312ZM35.0171 18.3281V19.4414H29.7729V18.3281H31.7163V17.166H33.1226V18.3281H35.0171ZM32.4194 19.8711C33.728 19.8711 34.7241 20.7695 34.7339 22.0293C34.7241 23.2988 33.728 24.1875 32.4194 24.1875C31.0718 24.1875 30.0854 23.2988 30.0952 22.0293C30.0854 20.7695 31.0718 19.8711 32.4194 19.8711ZM32.4194 21.0039C31.8433 21.0137 31.4331 21.3848 31.4429 22.0293C31.4331 22.6934 31.8433 23.0449 32.4194 23.0449C32.9761 23.0449 33.3765 22.6934 33.3862 22.0293C33.3765 21.3848 32.9761 21.0137 32.4194 21.0039ZM45.7827 17.0195V25.9844L44.3569 25.9844V17.0195H45.7827ZM43.0874 17.9473C43.0874 20.7109 42.2085 22.957 38.9468 24.4902L38.2144 23.377C40.4946 22.2979 41.4517 20.9746 41.6519 19.041H38.7222V17.9473H43.0874Z" fill="white"/>
<path d="M0.5 18.75L30.5 33.75V42.75H0.5V18.75Z" fill="white" fill-opacity="0.8"/>
<path d="M30.5 33.75L60.5 18.75V42.75H30.5V33.75Z" fill="white" fill-opacity="0.8"/>
</svg>
