<svg width="24" height="25" viewBox="0 0 24 25" fill="none" xmlns="http://www.w3.org/2000/svg">
<path d="M8.4694 5.53021C8.39971 5.46053 8.34444 5.3778 8.30673 5.28675C8.26902 5.19571 8.2496 5.09813 8.2496 4.99958C8.2496 4.90104 8.26902 4.80346 8.30673 4.71241C8.34444 4.62137 8.39971 4.53864 8.4694 4.46896C8.53908 4.39927 8.62181 4.344 8.71285 4.30629C8.80389 4.26858 8.90148 4.24917 9.00002 4.24917C9.09857 4.24917 9.19615 4.26858 9.28719 4.30629C9.37824 4.344 9.46097 4.39927 9.53065 4.46896L17.0306 11.969C17.1004 12.0386 17.1557 12.1213 17.1934 12.2124C17.2312 12.3034 17.2506 12.401 17.2506 12.4996C17.2506 12.5981 17.2312 12.6957 17.1934 12.7868C17.1557 12.8778 17.1004 12.9606 17.0306 13.0302L9.53065 20.5302C9.38992 20.6709 9.19904 20.75 9.00002 20.75C8.801 20.75 8.61013 20.6709 8.4694 20.5302C8.32866 20.3895 8.2496 20.1986 8.2496 19.9996C8.2496 19.8006 8.32866 19.6097 8.4694 19.469L15.4397 12.4996L8.4694 5.53021Z" fill="black"/>
</svg>
