<svg width="101" height="100" viewBox="0 0 101 100" fill="none" xmlns="http://www.w3.org/2000/svg">
<path fill-rule="evenodd" clip-rule="evenodd" d="M12.75 5.37305H71.4812V57.2485C68.0198 57.022 64.5204 57.7292 61.3931 59.373H15.75V60.373H59.7109C58.6987 61.0489 57.7382 61.8331 56.8455 62.7258C56.0172 63.5541 55.2823 64.4408 54.6406 65.373H15.75V66.373H53.9982C51.5872 70.4024 50.8099 75.15 51.6598 79.6715H12.75V5.37305ZM15.75 17.373H67.75V18.373H15.75V17.373ZM67.75 23.373H15.75V24.373H67.75V23.373ZM15.75 29.373H67.75V30.373H15.75V29.373ZM67.75 35.373H15.75V36.373H67.75V35.373ZM15.75 41.373H67.75V42.373H15.75V41.373ZM67.75 47.373H15.75V48.373H67.75V47.373ZM15.75 53.373H67.75V54.373H15.75V53.373Z" fill="black"/>
<path fill-rule="evenodd" clip-rule="evenodd" d="M83.4738 89.3523C90.578 82.2481 90.498 70.6499 83.2952 63.4471C76.0923 56.2442 64.4942 56.1643 57.39 63.2684C50.2858 70.3726 50.3658 81.9708 57.5687 89.1736C64.7715 96.3765 76.3697 96.4564 83.4738 89.3523ZM80.3458 76.6403L72.0124 68.6403L71.3199 69.3617L78.7567 76.501H59.9995V77.501H79.9995H81.2423L80.3458 76.6403Z" fill="black"/>
</svg>
