<svg width="25" height="25" viewBox="0 0 25 25" fill="none" xmlns="http://www.w3.org/2000/svg">
<path fill-rule="evenodd" clip-rule="evenodd" d="M12.5 21C17.1944 21 21 17.1944 21 12.5C21 7.80558 17.1944 4 12.5 4C7.80558 4 4 7.80558 4 12.5C4 17.1944 7.80558 21 12.5 21ZM13.4402 15.1202L13.618 8.18854H11.5125L11.6902 15.1202H13.4402ZM12.5789 15.9268C11.9363 15.92 11.4168 16.4327 11.4305 17.0616C11.4168 17.6973 11.9363 18.21 12.5789 18.21C13.1873 18.21 13.7137 17.6973 13.7137 17.0616C13.7137 16.4327 13.1873 15.92 12.5789 15.9268Z" fill="#FF236C"/>
</svg>
