<svg width="151" height="150" viewBox="0 0 151 150" fill="none" xmlns="http://www.w3.org/2000/svg">
<rect x="98.6799" y="98.7188" width="7.50102" height="32.287" transform="rotate(-45 98.6799 98.7188)" fill="black"/>
<path d="M101.701 62.9523C111.04 72.2916 111.115 87.2915 101.951 96.4557C92.7871 105.62 77.7872 105.544 68.4478 96.2051C59.1085 86.8658 59.0331 71.8659 68.1973 62.7017C77.3615 53.5375 92.3613 53.6129 101.701 62.9523Z" stroke="black" stroke-width="4"/>
<path d="M99.602 65.0499C107.753 73.201 107.856 86.3135 99.8326 94.3373C91.8087 102.361 78.6963 102.258 70.5451 94.1067C62.394 85.9555 62.2907 72.8431 70.3145 64.8193C78.3384 56.7954 91.4508 56.8987 99.602 65.0499Z" fill="black"/>
<path fill-rule="evenodd" clip-rule="evenodd" d="M9.18188 13.1758H91.3657V53.7453C84.8557 52.0912 77.8775 52.8979 71.9169 56.1758H14.1819V57.1758H70.2487C68.7396 58.1584 67.3103 59.3111 65.9874 60.634C64.5828 62.0386 63.3701 63.5632 62.3491 65.1758H14.1819V66.1758H61.7467C60.3074 68.6908 59.3149 71.3955 58.7681 74.1758H14.1819V75.1758H58.5912C58.1752 77.8192 58.1575 80.518 58.5374 83.1758H14.1819V84.1758H58.6994C59.2001 86.9369 60.1337 89.64 61.4994 92.1758H14.1819V93.1758H62.0657C63.2045 95.0909 64.599 96.8983 66.2489 98.5481C67.2118 99.511 68.2283 100.387 69.2886 101.176H14.1819V102.176H70.727C76.9444 106.208 84.4252 107.444 91.3657 105.871V117.143H9.18188V13.1758ZM14.1819 29.1758H86.1819V30.1758H14.1819V29.1758ZM86.1819 38.1758H14.1819V39.1758H86.1819V38.1758ZM14.1819 47.1758H86.1819V48.1758H14.1819V47.1758Z" fill="black"/>
</svg>
