<svg width="32" height="32" viewBox="0 0 32 32" fill="none" xmlns="http://www.w3.org/2000/svg">
<mask id="path-1-inside-1_3949_60735" fill="white">
<path fill-rule="evenodd" clip-rule="evenodd" d="M16.0001 4L4.57153 14.2857V28L13 28V20C13 18.3431 14.3431 17 16 17C17.6569 17 19 18.3431 19 20V28L27.4287 28V14.2857L16.0001 4Z"/>
</mask>
<path d="M4.57153 14.2857L3.2336 12.7991L2.57153 13.395V14.2857H4.57153ZM16.0001 4L17.338 2.51341L16.0001 1.30928L14.6622 2.51341L16.0001 4ZM4.57153 28H2.57153V30L4.57153 30L4.57153 28ZM13 28L13 30L15 30V28H13ZM19 28H17V30L19 30L19 28ZM27.4287 28L27.4287 30L29.4287 30V28H27.4287ZM27.4287 14.2857H29.4287V13.395L28.7666 12.7991L27.4287 14.2857ZM5.90946 15.7723L17.338 5.48659L14.6622 2.51341L3.2336 12.7991L5.90946 15.7723ZM6.57153 28V14.2857H2.57153V28H6.57153ZM13 26L4.57154 26L4.57153 30L13 30L13 26ZM15 28V20H11V28H15ZM15 20C15 19.4477 15.4477 19 16 19V15C13.2386 15 11 17.2386 11 20H15ZM16 19C16.5523 19 17 19.4477 17 20H21C21 17.2386 18.7614 15 16 15V19ZM17 20V28H21V20H17ZM27.4287 26L19 26L19 30L27.4287 30L27.4287 26ZM25.4287 14.2857V28H29.4287V14.2857H25.4287ZM14.6622 5.48659L26.0907 15.7723L28.7666 12.7991L17.338 2.51341L14.6622 5.48659Z" fill="black" mask="url(#path-1-inside-1_3949_60735)"/>
</svg>
